<svg xmlns="http://www.w3.org/2000/svg" viewBox="0 0 100 100" width="100" height="100">
  <rect width="100" height="100" fill="#000"/>
  <g fill="#fff">
    <polygon points="47,22 50,4 53,22"/>
    <rect x="45" y="22" width="10" height="14"/>
    <rect x="41" y="36" width="18" height="16"/>
    <rect x="36" y="52" width="28" height="18"/>
    <rect x="30" y="70" width="40" height="22"/>
    <rect x="16" y="92" width="68" height="3"/>
  </g>
  <g fill="#000">
    <rect x="49" y="40" width="2" height="10"/>
    <rect x="43" y="56" width="2" height="12"/><rect x="49" y="56" width="2" height="12"/><rect x="55" y="56" width="2" height="12"/>
    <rect x="37" y="74" width="2" height="16"/><rect x="43" y="74" width="2" height="16"/><rect x="49" y="74" width="2" height="16"/><rect x="55" y="74" width="2" height="16"/><rect x="61" y="74" width="2" height="16"/>
  </g>
</svg>
